<?xml version="1.0" encoding="UTF-8" standalone="no"?>
<!DOCTYPE svg PUBLIC "-//W3C//DTD SVG 1.1//EN"
 "http://www.w3.org/Graphics/SVG/1.1/DTD/svg11.dtd">
<!-- Generated by graphviz version 2.44.1 (20200629.0846)
 -->
<!-- Title: g Pages: 1 -->
<svg width="1513pt" height="4054pt"
 viewBox="0.00 0.00 1513.40 4054.40" xmlns="http://www.w3.org/2000/svg" xmlns:xlink="http://www.w3.org/1999/xlink">
<g id="graph0" class="graph" transform="scale(1 1) rotate(0) translate(4 4050.4)">
<title>g</title>
<polygon fill="white" stroke="transparent" points="-4,4 -4,-4050.4 1509.4,-4050.4 1509.4,4 -4,4"/>
<g id="clust2" class="cluster">
<title>cluster_1293532513</title>
<polygon fill="#ececec" stroke="black" points="1160,-3803.6 1160,-4038.4 1406,-4038.4 1406,-3803.6 1160,-3803.6"/>
<text text-anchor="middle" x="1199.09" y="-4021.8" font-family="Times New Roman,serif" font-size="14.00">persistence</text>
</g>
<g id="clust1" class="cluster">
<title>cluster_104069929</title>
<polygon fill="#ececec" stroke="black" points="542,-8 542,-1682 1234,-1682 1234,-8 542,-8"/>
<text text-anchor="middle" x="567.5" y="-1665.4" font-family="Times New Roman,serif" font-size="14.00">model</text>
</g>
<g id="clust3" class="cluster">
<title>cluster_3732</title>
<polygon fill="#ececec" stroke="black" points="8,-1733.6 8,-3966.4 1152,-3966.4 1152,-1733.6 8,-1733.6"/>
<text text-anchor="middle" x="21.45" y="-3949.8" font-family="Times New Roman,serif" font-size="14.00">ui</text>
</g>
<!-- Event104069929 -->
<g id="node1" class="node">
<title>Event104069929</title>
<polygon fill="#ffffff" stroke="transparent" points="816.5,-809.6 649.5,-809.6 649.5,-639.6 816.5,-639.6 816.5,-809.6"/>
<text text-anchor="start" x="655" y="-792" font-family="Times New Roman,serif" font-size="14.00">(C)Event</text>
<text text-anchor="start" x="655" y="-768" font-family="Times New Roman,serif" font-size="14.00">&#45; &#160;&#160;dateLogged: Date [0..1]</text>
<text text-anchor="start" x="655" y="-744" font-family="Times New Roman,serif" font-size="14.00">&#45; &#160;&#160;description: String [0..1]</text>
<text text-anchor="start" x="654.9" y="-720" font-family="Times New Roman,serif" font-size="14.00">+ Event(description: String)</text>
<text text-anchor="start" x="655" y="-696" font-family="Times New Roman,serif" font-size="14.00">+ getDate(): Date</text>
<text text-anchor="start" x="655" y="-672" font-family="Times New Roman,serif" font-size="14.00">+ getDescription(): String</text>
<text text-anchor="start" x="655" y="-648" font-family="Times New Roman,serif" font-size="14.00">+ hashCode(): int</text>
<polygon fill="black" stroke="black" points="650,-784.6 650,-784.6 817,-784.6 817,-784.6 650,-784.6"/>
<polygon fill="black" stroke="black" points="650,-736.6 650,-736.6 817,-736.6 817,-736.6 650,-736.6"/>
<polygon fill="none" stroke="black" points="649.5,-639.6 649.5,-809.6 816.5,-809.6 816.5,-639.6 649.5,-639.6"/>
</g>
<!-- EventLog104069929 -->
<g id="node2" class="node">
<title>EventLog104069929</title>
<polygon fill="#ffffff" stroke="transparent" points="1226,-1445.2 1018,-1445.2 1018,-1275.2 1226,-1275.2 1226,-1445.2"/>
<text text-anchor="start" x="1023" y="-1427.6" font-family="Times New Roman,serif" font-size="14.00">(C)EventLog</text>
<text text-anchor="start" x="1022.54" y="-1403.6" font-family="Times New Roman,serif" font-size="14.00">&#45; &#160;&#160;events: Collection&lt;Event&gt; [0..*]</text>
<text text-anchor="start" x="1023" y="-1379.6" font-family="Times New Roman,serif" font-size="14.00">&#45; EventLog()</text>
<text text-anchor="start" x="1023" y="-1355.6" font-family="Times New Roman,serif" font-size="14.00">+ clear()</text>
<text text-anchor="start" x="1023" y="-1331.6" font-family="Times New Roman,serif" font-size="14.00">+ getInstance(): EventLog</text>
<text text-anchor="start" x="1023" y="-1307.6" font-family="Times New Roman,serif" font-size="14.00">+ iterator(): Iterator&lt;Event&gt;</text>
<text text-anchor="start" x="1023" y="-1283.6" font-family="Times New Roman,serif" font-size="14.00">+ logEvent(e: Event)</text>
<polygon fill="black" stroke="black" points="1018,-1420.2 1018,-1420.2 1226,-1420.2 1226,-1420.2 1018,-1420.2"/>
<polygon fill="black" stroke="black" points="1018,-1396.2 1018,-1396.2 1226,-1396.2 1226,-1396.2 1018,-1396.2"/>
<polygon fill="none" stroke="black" points="1018,-1275.2 1018,-1445.2 1226,-1445.2 1226,-1275.2 1018,-1275.2"/>
</g>
<!-- EventLog104069929&#45;&gt;Event104069929 -->
<g id="edge1" class="edge">
<title>EventLog104069929&#45;&gt;Event104069929</title>
<path fill="none" stroke="black" d="M1089.01,-1275.12C1055.66,-1190.12 1009,-1071.2 1009,-1071.2 1009,-1071.2 957,-1019.6 957,-1019.6 957,-1019.6 826,-1001.6 826,-1001.6 826,-1001.6 791.61,-899.54 764.66,-819.55"/>
<polygon fill="black" stroke="black" points="767.92,-818.27 761.41,-809.91 761.28,-820.5 767.92,-818.27"/>
<text text-anchor="middle" x="1007.88" y="-1040.6" font-family="Times New Roman,serif" font-size="14.00">events</text>
<text text-anchor="middle" x="1007.88" y="-1023.8" font-family="Times New Roman,serif" font-size="14.00">[0..*]</text>
</g>
<!-- Message104069929 -->
<g id="node3" class="node">
<title>Message104069929</title>
<polygon fill="#ffffff" stroke="transparent" points="1210,-378 850,-378 850,-16 1210,-16 1210,-378"/>
<text text-anchor="start" x="855" y="-360.4" font-family="Times New Roman,serif" font-size="14.00">(C)Message</text>
<text text-anchor="start" x="855" y="-336.4" font-family="Times New Roman,serif" font-size="14.00">&#45; &#160;&#160;content: String [0..1]</text>
<text text-anchor="start" x="855" y="-312.4" font-family="Times New Roman,serif" font-size="14.00">&#45; &#160;&#160;pathStationsId: List&lt;Integer&gt; [0..*]</text>
<text text-anchor="start" x="855" y="-288.4" font-family="Times New Roman,serif" font-size="14.00">&#45; &#160;&#160;toStationId: int [1]</text>
<text text-anchor="start" x="854.64" y="-264.4" font-family="Times New Roman,serif" font-size="14.00"># Message(fromStationId: int, toStationId: int, content: String)</text>
<text text-anchor="start" x="855" y="-240.4" font-family="Times New Roman,serif" font-size="14.00"># Message(msg: Message, stationId: int)</text>
<text text-anchor="start" x="855" y="-216.4" font-family="Times New Roman,serif" font-size="14.00"># Message(msgJsonObj: JSONObject)</text>
<text text-anchor="start" x="855" y="-192.4" font-family="Times New Roman,serif" font-size="14.00">+ getContent(): String</text>
<text text-anchor="start" x="855" y="-168.4" font-family="Times New Roman,serif" font-size="14.00">+ getCurrentStationId(): int</text>
<text text-anchor="start" x="855" y="-144.4" font-family="Times New Roman,serif" font-size="14.00">+ getFromStationId(): int</text>
<text text-anchor="start" x="855" y="-120.4" font-family="Times New Roman,serif" font-size="14.00">+ getHopCount(): int</text>
<text text-anchor="start" x="855" y="-96.4" font-family="Times New Roman,serif" font-size="14.00">+ getPathString(): String</text>
<text text-anchor="start" x="855" y="-72.4" font-family="Times New Roman,serif" font-size="14.00">+ getToStationId(): int</text>
<text text-anchor="start" x="855" y="-48.4" font-family="Times New Roman,serif" font-size="14.00">+ hashCode(): int</text>
<text text-anchor="start" x="855" y="-24.4" font-family="Times New Roman,serif" font-size="14.00"># toJsonObject(): JSONObject</text>
<polygon fill="black" stroke="black" points="850,-353 850,-353 1210,-353 1210,-353 850,-353"/>
<polygon fill="black" stroke="black" points="850,-281 850,-281 1210,-281 1210,-281 850,-281"/>
<polygon fill="none" stroke="black" points="850,-16 850,-378 1210,-378 1210,-16 850,-16"/>
</g>
<!-- Network104069929 -->
<g id="node4" class="node">
<title>Network104069929</title>
<polygon fill="#ffffff" stroke="transparent" points="1000,-1649.2 550,-1649.2 550,-1071.2 1000,-1071.2 1000,-1649.2"/>
<text text-anchor="start" x="555" y="-1631.6" font-family="Times New Roman,serif" font-size="14.00">(C)Network</text>
<text text-anchor="start" x="555" y="-1607.6" font-family="Times New Roman,serif" font-size="14.00">&#45; &#160;&#160;name: String [0..1]</text>
<text text-anchor="start" x="555" y="-1583.6" font-family="Times New Roman,serif" font-size="14.00">&#45; &#160;&#160;stations: Set&lt;Station&gt; [0..*]</text>
<text text-anchor="start" x="555" y="-1559.6" font-family="Times New Roman,serif" font-size="14.00">+ Network()</text>
<text text-anchor="start" x="555" y="-1535.6" font-family="Times New Roman,serif" font-size="14.00">+ Network(netJsonObj: JSONObject)</text>
<text text-anchor="start" x="554.66" y="-1511.6" font-family="Times New Roman,serif" font-size="14.00">+ addStation(stationId: int, posX: double, posY: double, signalRadius: double)</text>
<text text-anchor="start" x="555" y="-1487.6" font-family="Times New Roman,serif" font-size="14.00">+ getNetworkStatus(): String</text>
<text text-anchor="start" x="555" y="-1463.6" font-family="Times New Roman,serif" font-size="14.00">&#45; getOnlineStations(): Set&lt;Station&gt;</text>
<text text-anchor="start" x="555" y="-1439.6" font-family="Times New Roman,serif" font-size="14.00">+ getPathStringWithLeastHops(fromStationId: int, toStationId: int): String</text>
<text text-anchor="start" x="555" y="-1415.6" font-family="Times New Roman,serif" font-size="14.00">&#45; getPhysicalDistance(a: Station, b: Station): double</text>
<text text-anchor="start" x="555" y="-1391.6" font-family="Times New Roman,serif" font-size="14.00">+ getPhysicalDistance(stationId1: int, stationId2: int): double</text>
<text text-anchor="start" x="555" y="-1367.6" font-family="Times New Roman,serif" font-size="14.00">&#45; getStationById(stationId: int): Station</text>
<text text-anchor="start" x="555" y="-1343.6" font-family="Times New Roman,serif" font-size="14.00">+ getStationStatus(stationId: int): String</text>
<text text-anchor="start" x="555" y="-1319.6" font-family="Times New Roman,serif" font-size="14.00">+ getStations(): Set&lt;Station&gt;</text>
<text text-anchor="start" x="555" y="-1295.6" font-family="Times New Roman,serif" font-size="14.00">+ hashCode(): int</text>
<text text-anchor="start" x="555" y="-1271.6" font-family="Times New Roman,serif" font-size="14.00">+ inboxStatus(stationId: int): String</text>
<text text-anchor="start" x="555" y="-1247.6" font-family="Times New Roman,serif" font-size="14.00">+ isReachable(sourceStationId: int, destinationStationId: int): boolean</text>
<text text-anchor="start" x="555" y="-1223.6" font-family="Times New Roman,serif" font-size="14.00">+ removeStation(stationId: int): boolean</text>
<text text-anchor="start" x="555" y="-1199.6" font-family="Times New Roman,serif" font-size="14.00">+ sendMessage(fromStationId: int, toStationId: int, content: String): Message</text>
<text text-anchor="start" x="555" y="-1175.6" font-family="Times New Roman,serif" font-size="14.00">+ setName(name: String)</text>
<text text-anchor="start" x="555" y="-1151.6" font-family="Times New Roman,serif" font-size="14.00">+ setSignalRadius(stationId: int, signalRadius: double): double</text>
<text text-anchor="start" x="555" y="-1127.6" font-family="Times New Roman,serif" font-size="14.00">+ setStationNetState(stationId: int, isOnline: boolean): int</text>
<text text-anchor="start" x="555" y="-1103.6" font-family="Times New Roman,serif" font-size="14.00">&#45; stationsToJsonArray(): JSONArray</text>
<text text-anchor="start" x="555" y="-1079.6" font-family="Times New Roman,serif" font-size="14.00">+ toJsonObject(): JSONObject</text>
<polygon fill="black" stroke="black" points="550,-1624.2 550,-1624.2 1000,-1624.2 1000,-1624.2 550,-1624.2"/>
<polygon fill="black" stroke="black" points="550,-1576.2 550,-1576.2 1000,-1576.2 1000,-1576.2 550,-1576.2"/>
<polygon fill="none" stroke="black" points="550,-1071.2 550,-1649.2 1000,-1649.2 1000,-1071.2 550,-1071.2"/>
</g>
<!-- Station104069929 -->
<g id="node5" class="node">
<title>Station104069929</title>
<polygon fill="#ffffff" stroke="transparent" points="1225.5,-1001.6 834.5,-1001.6 834.5,-447.6 1225.5,-447.6 1225.5,-1001.6"/>
<text text-anchor="start" x="840" y="-984" font-family="Times New Roman,serif" font-size="14.00">(C)Station</text>
<text text-anchor="start" x="840" y="-960" font-family="Times New Roman,serif" font-size="14.00">&#45; &#160;&#160;id: int [1]</text>
<text text-anchor="start" x="840" y="-936" font-family="Times New Roman,serif" font-size="14.00">&#45; &#160;&#160;inbox: List&lt;Message&gt; [0..*]</text>
<text text-anchor="start" x="840" y="-912" font-family="Times New Roman,serif" font-size="14.00">&#45; &#160;&#160;isOnline: boolean [1]</text>
<text text-anchor="start" x="840" y="-888" font-family="Times New Roman,serif" font-size="14.00">&#45; &#160;&#160;posX: double [1]</text>
<text text-anchor="start" x="840" y="-864" font-family="Times New Roman,serif" font-size="14.00">&#45; &#160;&#160;posY: double [1]</text>
<text text-anchor="start" x="840" y="-840" font-family="Times New Roman,serif" font-size="14.00">&#45; &#160;&#160;signalRadius: double [1]</text>
<text text-anchor="start" x="839.77" y="-816" font-family="Times New Roman,serif" font-size="14.00"># Station(id: int, posX: double, posY: double, signalRadius: double)</text>
<text text-anchor="start" x="840" y="-792" font-family="Times New Roman,serif" font-size="14.00"># Station(stationJsonObj: JSONObject)</text>
<text text-anchor="start" x="840" y="-768" font-family="Times New Roman,serif" font-size="14.00">+ compareTo(station: Station): int</text>
<text text-anchor="start" x="840" y="-744" font-family="Times New Roman,serif" font-size="14.00">+ getCurrentSignalRadius(): double</text>
<text text-anchor="start" x="840" y="-720" font-family="Times New Roman,serif" font-size="14.00">+ getId(): int</text>
<text text-anchor="start" x="840" y="-696" font-family="Times New Roman,serif" font-size="14.00"># getInbox(): List&lt;Message&gt;</text>
<text text-anchor="start" x="840" y="-672" font-family="Times New Roman,serif" font-size="14.00">+ getPosX(): double</text>
<text text-anchor="start" x="840" y="-648" font-family="Times New Roman,serif" font-size="14.00">+ getPosY(): double</text>
<text text-anchor="start" x="840" y="-624" font-family="Times New Roman,serif" font-size="14.00"># getSignalRadiusStatus(): String</text>
<text text-anchor="start" x="840" y="-600" font-family="Times New Roman,serif" font-size="14.00">+ hashCode(): int</text>
<text text-anchor="start" x="840" y="-576" font-family="Times New Roman,serif" font-size="14.00">&#45; inboxToJsonArray(): JSONArray</text>
<text text-anchor="start" x="840" y="-552" font-family="Times New Roman,serif" font-size="14.00">+ isOnline(): boolean</text>
<text text-anchor="start" x="840" y="-528" font-family="Times New Roman,serif" font-size="14.00"># pushInbox(msg: Message)</text>
<text text-anchor="start" x="840" y="-504" font-family="Times New Roman,serif" font-size="14.00"># setNetState(isOnline: boolean): boolean</text>
<text text-anchor="start" x="840" y="-480" font-family="Times New Roman,serif" font-size="14.00"># setSignalRadius(signalRadius: double): double</text>
<text text-anchor="start" x="840" y="-456" font-family="Times New Roman,serif" font-size="14.00"># toJsonObject(): JSONObject</text>
<polygon fill="black" stroke="black" points="835,-976.6 835,-976.6 1226,-976.6 1226,-976.6 835,-976.6"/>
<polygon fill="black" stroke="black" points="835,-832.6 835,-832.6 1226,-832.6 1226,-832.6 835,-832.6"/>
<polygon fill="none" stroke="black" points="834.5,-447.6 834.5,-1001.6 1225.5,-1001.6 1225.5,-447.6 834.5,-447.6"/>
</g>
<!-- Network104069929&#45;&gt;Station104069929 -->
<g id="edge3" class="edge">
<title>Network104069929&#45;&gt;Station104069929</title>
<path fill="none" stroke="black" d="M890.93,-1071.14C898.94,-1051.24 907.01,-1031.19 915.01,-1011.31"/>
<polygon fill="black" stroke="black" points="918.32,-1012.46 918.81,-1001.88 911.83,-1009.85 918.32,-1012.46"/>
<text text-anchor="middle" x="931.39" y="-1040.6" font-family="Times New Roman,serif" font-size="14.00">stations</text>
<text text-anchor="middle" x="931.39" y="-1023.8" font-family="Times New Roman,serif" font-size="14.00">[0..*]</text>
</g>
<!-- Station104069929&#45;&gt;Message104069929 -->
<g id="edge6" class="edge">
<title>Station104069929&#45;&gt;Message104069929</title>
<path fill="none" stroke="black" d="M1030,-447.33C1030,-427.41 1030,-407.59 1030,-388.33"/>
<polygon fill="black" stroke="black" points="1033.5,-388.32 1030,-378.32 1026.5,-388.32 1033.5,-388.32"/>
<text text-anchor="middle" x="1045.95" y="-417" font-family="Times New Roman,serif" font-size="14.00">inbox</text>
<text text-anchor="middle" x="1045.95" y="-400.2" font-family="Times New Roman,serif" font-size="14.00">[0..*]</text>
</g>
<!-- JsonFileIO1293532513 -->
<g id="node6" class="node">
<title>JsonFileIO1293532513</title>
<polygon fill="#ffffff" stroke="transparent" points="1398,-4005.6 1168,-4005.6 1168,-3811.6 1398,-3811.6 1398,-4005.6"/>
<text text-anchor="start" x="1173" y="-3988" font-family="Times New Roman,serif" font-size="14.00">(C)JsonFileIO</text>
<text text-anchor="start" x="1173" y="-3964" font-family="Times New Roman,serif" font-size="14.00">&#45; &#160;&#160;file: File [0..1]</text>
<text text-anchor="start" x="1173" y="-3940" font-family="Times New Roman,serif" font-size="14.00">&#45; &#160;&#160;jsonObj: JSONObject [0..1]</text>
<text text-anchor="start" x="1173" y="-3916" font-family="Times New Roman,serif" font-size="14.00">+ JsonFileIO(filePath: String)</text>
<text text-anchor="start" x="1173" y="-3892" font-family="Times New Roman,serif" font-size="14.00">+ getJsonObject(): JSONObject</text>
<text text-anchor="start" x="1173" y="-3868" font-family="Times New Roman,serif" font-size="14.00">+ loadFile(): boolean</text>
<text text-anchor="start" x="1172.52" y="-3844" font-family="Times New Roman,serif" font-size="14.00">+ setJsonObject(jsonObj: JSONObject)</text>
<text text-anchor="start" x="1173" y="-3820" font-family="Times New Roman,serif" font-size="14.00">+ writeFile(): boolean</text>
<polygon fill="black" stroke="black" points="1168,-3980.6 1168,-3980.6 1398,-3980.6 1398,-3980.6 1168,-3980.6"/>
<polygon fill="black" stroke="black" points="1168,-3932.6 1168,-3932.6 1398,-3932.6 1398,-3932.6 1168,-3932.6"/>
<polygon fill="none" stroke="black" points="1168,-3811.6 1168,-4005.6 1398,-4005.6 1398,-3811.6 1168,-3811.6"/>
</g>
<!-- Main3732 -->
<g id="node7" class="node">
<title>Main3732</title>
<polygon fill="#ffffff" stroke="transparent" points="646,-3933.6 514,-3933.6 514,-3883.6 646,-3883.6 646,-3933.6"/>
<text text-anchor="start" x="519" y="-3916" font-family="Times New Roman,serif" font-size="14.00">(C)Main</text>
<text text-anchor="start" x="518.52" y="-3892" font-family="Times New Roman,serif" font-size="14.00">+ main(args: String[])</text>
<polygon fill="black" stroke="black" points="514,-3908.6 514,-3908.6 646,-3908.6 646,-3908.6 514,-3908.6"/>
<polygon fill="none" stroke="black" points="514,-3883.6 514,-3933.6 646,-3933.6 646,-3883.6 514,-3883.6"/>
</g>
<!-- StationNetworkManagerGUI3732 -->
<g id="node11" class="node">
<title>StationNetworkManagerGUI3732</title>
<polygon fill="#ffffff" stroke="transparent" points="1144,-3758.8 16,-3758.8 16,-2604.8 1144,-2604.8 1144,-3758.8"/>
<text text-anchor="start" x="21" y="-3741.2" font-family="Times New Roman,serif" font-size="14.00">(C)StationNetworkManagerGUI</text>
<text text-anchor="start" x="21" y="-3717.2" font-family="Times New Roman,serif" font-size="14.00">&#45; &#160;&#160;addStationTool: JToolBar [0..1]</text>
<text text-anchor="start" x="21" y="-3693.2" font-family="Times New Roman,serif" font-size="14.00">&#45; &#160;&#160;btnAddStation: JButton [0..1]</text>
<text text-anchor="start" x="21" y="-3669.2" font-family="Times New Roman,serif" font-size="14.00">&#45; &#160;&#160;btnDestInbox: JButton [0..1]</text>
<text text-anchor="start" x="21" y="-3645.2" font-family="Times New Roman,serif" font-size="14.00">&#45; &#160;&#160;btnPathLeastHops: JButton [0..1]</text>
<text text-anchor="start" x="21" y="-3621.2" font-family="Times New Roman,serif" font-size="14.00">&#45; &#160;&#160;btnPhyDistance: JButton [0..1]</text>
<text text-anchor="start" x="21" y="-3597.2" font-family="Times New Roman,serif" font-size="14.00">&#45; &#160;&#160;btnReachable: JButton [0..1]</text>
<text text-anchor="start" x="21" y="-3573.2" font-family="Times New Roman,serif" font-size="14.00">&#45; &#160;&#160;btnRmvDestStation: JButton [0..1]</text>
<text text-anchor="start" x="21" y="-3549.2" font-family="Times New Roman,serif" font-size="14.00">&#45; &#160;&#160;btnRmvSrcStation: JButton [0..1]</text>
<text text-anchor="start" x="21" y="-3525.2" font-family="Times New Roman,serif" font-size="14.00">&#45; &#160;&#160;btnSendMsg: JButton [0..1]</text>
<text text-anchor="start" x="21" y="-3501.2" font-family="Times New Roman,serif" font-size="14.00">&#45; &#160;&#160;btnSrcInbox: JButton [0..1]</text>
<text text-anchor="start" x="21" y="-3477.2" font-family="Times New Roman,serif" font-size="14.00">&#45; &#160;&#160;cbDestOn: JCheckBox [0..1]</text>
<text text-anchor="start" x="21" y="-3453.2" font-family="Times New Roman,serif" font-size="14.00">&#45; &#160;&#160;cbSrcOn: JCheckBox [0..1]</text>
<text text-anchor="start" x="21" y="-3429.2" font-family="Times New Roman,serif" font-size="14.00">&#45; &#160;&#160;consoleArea: JTextArea [0..1]</text>
<text text-anchor="start" x="21" y="-3405.2" font-family="Times New Roman,serif" font-size="14.00">&#45; &#160;&#160;consoleScrollPanel: JScrollPane [0..1]</text>
<text text-anchor="start" x="21" y="-3381.2" font-family="Times New Roman,serif" font-size="14.00">&#45; &#160;&#160;currentFile: File [0..1]</text>
<text text-anchor="start" x="21" y="-3357.2" font-family="Times New Roman,serif" font-size="14.00">&#45; &#160;&#160;destinationSelector: JComboBox&lt;Station&gt; [0..1]</text>
<text text-anchor="start" x="21" y="-3333.2" font-family="Times New Roman,serif" font-size="14.00">&#45; &#160;&#160;destinationStationPanel: JTabbedPane [0..1]</text>
<text text-anchor="start" x="21" y="-3309.2" font-family="Times New Roman,serif" font-size="14.00">&#45; &#160;&#160;destinationStatusArea: JTextArea [0..1]</text>
<text text-anchor="start" x="21" y="-3285.2" font-family="Times New Roman,serif" font-size="14.00">&#45; &#160;&#160;inputStationId: JTextField [0..1]</text>
<text text-anchor="start" x="21" y="-3261.2" font-family="Times New Roman,serif" font-size="14.00">&#45; &#160;&#160;inputStationX: JTextField [0..1]</text>
<text text-anchor="start" x="21" y="-3237.2" font-family="Times New Roman,serif" font-size="14.00">&#45; &#160;&#160;inputStationY: JTextField [0..1]</text>
<text text-anchor="start" x="21" y="-3213.2" font-family="Times New Roman,serif" font-size="14.00">&#45; &#160;&#160;menuBar: JMenuBar [0..1]</text>
<text text-anchor="start" x="21" y="-3189.2" font-family="Times New Roman,serif" font-size="14.00">&#45; &#160;&#160;networkTools: JToolBar [0..1]</text>
<text text-anchor="start" x="21" y="-3165.2" font-family="Times New Roman,serif" font-size="14.00">&#45; &#160;&#160;panel: JPanel [0..1]</text>
<text text-anchor="start" x="21" y="-3141.2" font-family="Times New Roman,serif" font-size="14.00">&#45; &#160;&#160;previewDestSignalR: JLabel [0..1]</text>
<text text-anchor="start" x="21" y="-3117.2" font-family="Times New Roman,serif" font-size="14.00">&#45; &#160;&#160;previewSrcSignalR: JLabel [0..1]</text>
<text text-anchor="start" x="21" y="-3093.2" font-family="Times New Roman,serif" font-size="14.00">&#45; &#160;&#160;sldDestSignalR: JSlider [0..1]</text>
<text text-anchor="start" x="21" y="-3069.2" font-family="Times New Roman,serif" font-size="14.00">&#45; &#160;&#160;sldSrcSignalR: JSlider [0..1]</text>
<text text-anchor="start" x="21" y="-3045.2" font-family="Times New Roman,serif" font-size="14.00">&#45; &#160;&#160;sourceSelector: JComboBox&lt;Station&gt; [0..1]</text>
<text text-anchor="start" x="21" y="-3021.2" font-family="Times New Roman,serif" font-size="14.00">&#45; &#160;&#160;sourceStationPanel: JTabbedPane [0..1]</text>
<text text-anchor="start" x="21" y="-2997.2" font-family="Times New Roman,serif" font-size="14.00">&#45; &#160;&#160;sourceStatusArea: JTextArea [0..1]</text>
<text text-anchor="start" x="21" y="-2973.2" font-family="Times New Roman,serif" font-size="14.00">&#45; &#160;&#160;twinStationsPanel: JSplitPane [0..1]</text>
<text text-anchor="start" x="21" y="-2949.2" font-family="Times New Roman,serif" font-size="14.00">+ StationNetworkManagerGUI()</text>
<text text-anchor="start" x="21" y="-2925.2" font-family="Times New Roman,serif" font-size="14.00">&#45; areSrcDestStationsBothSelected(): boolean</text>
<text text-anchor="start" x="21" y="-2901.2" font-family="Times New Roman,serif" font-size="14.00">&#45; createAddStationToolbar()</text>
<text text-anchor="start" x="21" y="-2877.2" font-family="Times New Roman,serif" font-size="14.00">&#45; createConsoleArea()</text>
<text text-anchor="start" x="21" y="-2853.2" font-family="Times New Roman,serif" font-size="14.00">&#45; createMenuBar()</text>
<text text-anchor="start" x="21" y="-2829.2" font-family="Times New Roman,serif" font-size="14.00">&#45; createNetworkToolbar()</text>
<text text-anchor="start" x="20.75" y="-2805.2" font-family="Times New Roman,serif" font-size="14.00">&#45; createStationArea(stationSelector: JComboBox&lt;Station&gt;, statusArea: JTextArea, btnRmvStation: JButton, cbStaOn: JCheckBox, sldStaSignalR: JSlider, previewSignalR: JLabel, btnInbox: JButton)</text>
<text text-anchor="start" x="21" y="-2781.2" font-family="Times New Roman,serif" font-size="14.00">&#45; createUIComponents()</text>
<text text-anchor="start" x="21" y="-2757.2" font-family="Times New Roman,serif" font-size="14.00">&#45; isStationSelected(stationSelector: JComboBox&lt;Station&gt;): boolean</text>
<text text-anchor="start" x="21" y="-2733.2" font-family="Times New Roman,serif" font-size="14.00">&#45; redirectSystemOutErrStream(out: PrintStream, err: PrintStream)</text>
<text text-anchor="start" x="21" y="-2709.2" font-family="Times New Roman,serif" font-size="14.00"># runNetworkManager()</text>
<text text-anchor="start" x="21" y="-2685.2" font-family="Times New Roman,serif" font-size="14.00">&#45; updateConsole(output: String)</text>
<text text-anchor="start" x="21" y="-2661.2" font-family="Times New Roman,serif" font-size="14.00">&#45; updateStationSelectorList(stationSelector: JComboBox&lt;Station&gt;)</text>
<text text-anchor="start" x="21" y="-2637.2" font-family="Times New Roman,serif" font-size="14.00">&#45; updateStationStatusArea(statusArea: JTextArea, selectedStation: Station)</text>
<text text-anchor="start" x="21" y="-2613.2" font-family="Times New Roman,serif" font-size="14.00">&#45; updateTitle()</text>
<polygon fill="black" stroke="black" points="16,-3733.8 16,-3733.8 1144,-3733.8 1144,-3733.8 16,-3733.8"/>
<polygon fill="black" stroke="black" points="16,-2965.8 16,-2965.8 1144,-2965.8 1144,-2965.8 16,-2965.8"/>
<polygon fill="none" stroke="black" points="16,-2604.8 16,-3758.8 1144,-3758.8 1144,-2604.8 16,-2604.8"/>
</g>
<!-- Main3732&#45;&gt;StationNetworkManagerGUI3732 -->
<g id="edge2" class="edge">
<title>Main3732&#45;&gt;StationNetworkManagerGUI3732</title>
<path fill="none" stroke="black" d="M580,-3883.48C580,-3859.42 580,-3818.91 580,-3769.13"/>
<polygon fill="black" stroke="black" points="583.5,-3769.05 580,-3759.05 576.5,-3769.05 583.5,-3769.05"/>
<text text-anchor="middle" x="694.73" y="-3781" font-family="Times New Roman,serif" font-size="14.00">main() &#45;&gt; StationNetworkManagerGUI()</text>
</g>
<!-- NetworkStatusWindow3732 -->
<g id="node8" class="node">
<title>NetworkStatusWindow3732</title>
<polygon fill="#ffffff" stroke="transparent" points="971.5,-2523.2 522.5,-2523.2 522.5,-2377.2 971.5,-2377.2 971.5,-2523.2"/>
<text text-anchor="start" x="528" y="-2505.6" font-family="Times New Roman,serif" font-size="14.00">(C)NetworkStatusWindow</text>
<text text-anchor="start" x="528" y="-2481.6" font-family="Times New Roman,serif" font-size="14.00">&#45; &#160;&#160;networkManager: StationNetworkManagerConsole [0..1]</text>
<text text-anchor="start" x="528" y="-2457.6" font-family="Times New Roman,serif" font-size="14.00">&#45; &#160;&#160;panel: JPanel [0..1]</text>
<text text-anchor="start" x="528" y="-2433.6" font-family="Times New Roman,serif" font-size="14.00">&#45; &#160;&#160;statusArea: JTextArea [0..1]</text>
<text text-anchor="start" x="527.79" y="-2409.6" font-family="Times New Roman,serif" font-size="14.00">+ NetworkStatusWindow(networkManager: StationNetworkManagerConsole)</text>
<text text-anchor="start" x="528" y="-2385.6" font-family="Times New Roman,serif" font-size="14.00">&#45; updateStatus()</text>
<polygon fill="black" stroke="black" points="523,-2498.2 523,-2498.2 972,-2498.2 972,-2498.2 523,-2498.2"/>
<polygon fill="black" stroke="black" points="523,-2426.2 523,-2426.2 972,-2426.2 972,-2426.2 523,-2426.2"/>
<polygon fill="none" stroke="black" points="522.5,-2377.2 522.5,-2523.2 971.5,-2523.2 971.5,-2377.2 522.5,-2377.2"/>
</g>
<!-- StationNetworkManagerConsole3732 -->
<g id="node10" class="node">
<title>StationNetworkManagerConsole3732</title>
<polygon fill="#ffffff" stroke="transparent" points="972,-2295.6 422,-2295.6 422,-1741.6 972,-1741.6 972,-2295.6"/>
<text text-anchor="start" x="427" y="-2278" font-family="Times New Roman,serif" font-size="14.00">(C)StationNetworkManagerConsole</text>
<text text-anchor="start" x="427" y="-2254" font-family="Times New Roman,serif" font-size="14.00">&#45; &#160;&#160;input: Scanner [0..1]</text>
<text text-anchor="start" x="427" y="-2230" font-family="Times New Roman,serif" font-size="14.00">&#45; &#160;&#160;network: Network [0..1]</text>
<text text-anchor="start" x="427" y="-2206" font-family="Times New Roman,serif" font-size="14.00">+ StationNetworkManagerConsole()</text>
<text text-anchor="start" x="426.76" y="-2182" font-family="Times New Roman,serif" font-size="14.00"># addNetworkStation(stationId: int, posX: double, posY: double, signalRadius: double): boolean</text>
<text text-anchor="start" x="427" y="-2158" font-family="Times New Roman,serif" font-size="14.00">&#45; commandNotFound()</text>
<text text-anchor="start" x="427" y="-2134" font-family="Times New Roman,serif" font-size="14.00"># getCommandHelp()</text>
<text text-anchor="start" x="427" y="-2110" font-family="Times New Roman,serif" font-size="14.00"># getInboxStatus(stationId: int): String</text>
<text text-anchor="start" x="427" y="-2086" font-family="Times New Roman,serif" font-size="14.00"># getNetworkStatus(): String</text>
<text text-anchor="start" x="427" y="-2062" font-family="Times New Roman,serif" font-size="14.00"># getPathStringWithLeastHops(srcStationID: int, destStationID: int): String</text>
<text text-anchor="start" x="427" y="-2038" font-family="Times New Roman,serif" font-size="14.00"># getPhysicalDistanceTwoStations(stationId1: int, stationId2: int): double</text>
<text text-anchor="start" x="427" y="-2014" font-family="Times New Roman,serif" font-size="14.00"># getStationStatus(stationId: int): String</text>
<text text-anchor="start" x="427" y="-1990" font-family="Times New Roman,serif" font-size="14.00"># getStations(): Set&lt;Station&gt;</text>
<text text-anchor="start" x="427" y="-1966" font-family="Times New Roman,serif" font-size="14.00"># isReachable(srcStationID: int, destStationID: int): boolean</text>
<text text-anchor="start" x="427" y="-1942" font-family="Times New Roman,serif" font-size="14.00"># loadNetwork(loadPath: String)</text>
<text text-anchor="start" x="427" y="-1918" font-family="Times New Roman,serif" font-size="14.00"># printProgramInfo()</text>
<text text-anchor="start" x="427" y="-1894" font-family="Times New Roman,serif" font-size="14.00"># removeStationById(stationId: int)</text>
<text text-anchor="start" x="427" y="-1870" font-family="Times New Roman,serif" font-size="14.00"># renameNetwork(name: String)</text>
<text text-anchor="start" x="427" y="-1846" font-family="Times New Roman,serif" font-size="14.00"># runNetworkManager()</text>
<text text-anchor="start" x="427" y="-1822" font-family="Times New Roman,serif" font-size="14.00"># saveNetwork(savePath: String)</text>
<text text-anchor="start" x="427" y="-1798" font-family="Times New Roman,serif" font-size="14.00"># sendMessage(srcStationId: int, destStationId: int, content: String)</text>
<text text-anchor="start" x="427" y="-1774" font-family="Times New Roman,serif" font-size="14.00"># setStationNetStat(stationId: int, online: boolean)</text>
<text text-anchor="start" x="427" y="-1750" font-family="Times New Roman,serif" font-size="14.00"># setStationSignalRadiusById(stationId: int, signalRadius: double)</text>
<polygon fill="black" stroke="black" points="422,-2270.6 422,-2270.6 972,-2270.6 972,-2270.6 422,-2270.6"/>
<polygon fill="black" stroke="black" points="422,-2222.6 422,-2222.6 972,-2222.6 972,-2222.6 422,-2222.6"/>
<polygon fill="none" stroke="black" points="422,-1741.6 422,-2295.6 972,-2295.6 972,-1741.6 422,-1741.6"/>
</g>
<!-- NetworkStatusWindow3732&#45;&gt;StationNetworkManagerConsole3732 -->
<g id="edge4" class="edge">
<title>NetworkStatusWindow3732&#45;&gt;StationNetworkManagerConsole3732</title>
<path fill="none" stroke="black" d="M738.57,-2376.81C736.13,-2355.82 733.3,-2331.52 730.3,-2305.68"/>
<polygon fill="black" stroke="black" points="733.77,-2305.23 729.13,-2295.7 726.81,-2306.04 733.77,-2305.23"/>
<text text-anchor="middle" x="781.81" y="-2334.6" font-family="Times New Roman,serif" font-size="14.00">networkManager</text>
<text text-anchor="middle" x="781.81" y="-2317.8" font-family="Times New Roman,serif" font-size="14.00">[0..1]</text>
</g>
<!-- NetworkVisualizationWindow3732 -->
<g id="node9" class="node">
<title>NetworkVisualizationWindow3732</title>
<polygon fill="#ffffff" stroke="transparent" points="484,-2535.2 16,-2535.2 16,-2365.2 484,-2365.2 484,-2535.2"/>
<text text-anchor="start" x="21" y="-2517.6" font-family="Times New Roman,serif" font-size="14.00">(C)NetworkVisualizationWindow</text>
<text text-anchor="start" x="21" y="-2493.6" font-family="Times New Roman,serif" font-size="14.00">&#45; &#160;&#160;networkManager: StationNetworkManagerGUI [0..1]</text>
<text text-anchor="start" x="21" y="-2469.6" font-family="Times New Roman,serif" font-size="14.00">&#45; &#160;&#160;panel: JPanel [0..1]</text>
<text text-anchor="start" x="21" y="-2445.6" font-family="Times New Roman,serif" font-size="14.00">&#45; &#160;&#160;prevStationsHash: int [1]</text>
<text text-anchor="start" x="21" y="-2421.6" font-family="Times New Roman,serif" font-size="14.00">&#45; &#160;&#160;visualPanel: JScrollPane [0..1]</text>
<text text-anchor="start" x="20.58" y="-2397.6" font-family="Times New Roman,serif" font-size="14.00">+ NetworkVisualizationWindow(networkManager: StationNetworkManagerGUI)</text>
<text text-anchor="start" x="21" y="-2373.6" font-family="Times New Roman,serif" font-size="14.00">&#45; createUIComponents()</text>
<polygon fill="black" stroke="black" points="16,-2510.2 16,-2510.2 484,-2510.2 484,-2510.2 16,-2510.2"/>
<polygon fill="black" stroke="black" points="16,-2414.2 16,-2414.2 484,-2414.2 484,-2414.2 16,-2414.2"/>
<polygon fill="none" stroke="black" points="16,-2365.2 16,-2535.2 484,-2535.2 484,-2365.2 16,-2365.2"/>
</g>
<!-- NetworkVisualizationWindow3732&#45;&gt;StationNetworkManagerGUI3732 -->
<g id="edge5" class="edge">
<title>NetworkVisualizationWindow3732&#45;&gt;StationNetworkManagerGUI3732</title>
<path fill="none" stroke="black" d="M356.53,-2535.43C369.9,-2546 379,-2553.2 379,-2553.2 379,-2553.2 383.97,-2568.72 392.35,-2594.87"/>
<polygon fill="black" stroke="black" points="389.07,-2596.1 395.45,-2604.56 395.73,-2593.97 389.07,-2596.1"/>
<text text-anchor="middle" x="436.81" y="-2574.2" font-family="Times New Roman,serif" font-size="14.00">networkManager</text>
<text text-anchor="middle" x="436.81" y="-2557.4" font-family="Times New Roman,serif" font-size="14.00">[0..1]</text>
</g>
<!-- StationNetworkManagerConsole3732&#45;&gt;Network104069929 -->
<g id="edge7" class="edge">
<title>StationNetworkManagerConsole3732&#45;&gt;Network104069929</title>
<path fill="none" stroke="black" d="M729.85,-1741.13C733.07,-1714.06 736.34,-1686.51 739.58,-1659.24"/>
<polygon fill="black" stroke="black" points="743.07,-1659.55 740.78,-1649.2 736.12,-1658.72 743.07,-1659.55"/>
<text text-anchor="middle" x="755.94" y="-1711" font-family="Times New Roman,serif" font-size="14.00">network</text>
<text text-anchor="middle" x="755.94" y="-1694.2" font-family="Times New Roman,serif" font-size="14.00">[0..1]</text>
</g>
<!-- StationNetworkManagerConsole3732&#45;&gt;StationNetworkManagerGUI3732 -->
<g id="edge8" class="edge">
<title>StationNetworkManagerConsole3732&#45;&gt;StationNetworkManagerGUI3732</title>
<path fill="none" stroke="black" d="M546.11,-2304.56C527.02,-2340.62 514,-2365.2 514,-2365.2 514,-2365.2 514,-2535.2 514,-2535.2 514,-2535.2 516.74,-2561.97 521.09,-2604.6"/>
<polygon fill="none" stroke="black" points="549.23,-2306.15 550.81,-2295.68 543.04,-2302.88 549.23,-2306.15"/>
</g>
<!-- StationNetworkManagerGUI3732&#45;&gt;EventLog104069929 -->
<g id="edge9" class="edge">
<title>StationNetworkManagerGUI3732&#45;&gt;EventLog104069929</title>
<path fill="none" stroke="black" d="M969.97,-2604.58C977.69,-2593.16 982,-2586.8 982,-2586.8 982,-2586.8 1000.79,-2313.6 1000.79,-2313.6 1000.79,-2313.6 1079.4,-1695.92 1110.01,-1455.43"/>
<polygon fill="black" stroke="black" points="1113.51,-1455.66 1111.3,-1445.3 1106.56,-1454.78 1113.51,-1455.66"/>
<text text-anchor="middle" x="1132.61" y="-2326.2" font-family="Times New Roman,serif" font-size="14.00">StationNetworkManagerGUI() &#45;&gt; getInstance()</text>
</g>
<!-- StationNetworkManagerGUI3732&#45;&gt;Station104069929 -->
<g id="edge12" class="edge">
<title>StationNetworkManagerGUI3732&#45;&gt;Station104069929</title>
<path fill="none" stroke="black" d="M1132.83,-2604.59C1218.91,-2514.87 1280,-2451.2 1280,-2451.2 1280,-2451.2 1280,-2451.2 1280,-1359.2 1280,-1359.2 1235,-1071.2 1235,-1071.2 1235,-1071.2 1220.42,-1046.62 1199.03,-1010.56"/>
<polygon fill="black" stroke="black" points="1201.87,-1008.49 1193.76,-1001.68 1195.85,-1012.06 1201.87,-1008.49"/>
<text text-anchor="middle" x="1333.65" y="-2022.8" font-family="Times New Roman,serif" font-size="14.00">destinationSelector</text>
<text text-anchor="middle" x="1333.65" y="-2006" font-family="Times New Roman,serif" font-size="14.00">[0..1]</text>
</g>
<!-- StationNetworkManagerGUI3732&#45;&gt;Station104069929 -->
<g id="edge13" class="edge">
<title>StationNetworkManagerGUI3732&#45;&gt;Station104069929</title>
<path fill="none" stroke="black" d="M1144.05,-2692.63C1297.88,-2559.49 1423,-2451.2 1423,-2451.2 1423,-2451.2 1423,-2451.2 1423,-1359.2 1423,-1359.2 1294,-1071.2 1294,-1071.2 1294,-1071.2 1267.73,-1036.81 1231.76,-989.73"/>
<polygon fill="black" stroke="black" points="1234.52,-987.57 1225.67,-981.75 1228.96,-991.82 1234.52,-987.57"/>
<text text-anchor="middle" x="1464.2" y="-2022.8" font-family="Times New Roman,serif" font-size="14.00">sourceSelector</text>
<text text-anchor="middle" x="1464.2" y="-2006" font-family="Times New Roman,serif" font-size="14.00">[0..1]</text>
</g>
<!-- StationNetworkManagerGUI3732&#45;&gt;NetworkStatusWindow3732 -->
<g id="edge10" class="edge">
<title>StationNetworkManagerGUI3732&#45;&gt;NetworkStatusWindow3732</title>
<path fill="none" stroke="black" d="M711.89,-2604.59C717.92,-2578.24 723.44,-2554.13 728.22,-2533.23"/>
<polygon fill="black" stroke="black" points="731.69,-2533.75 730.51,-2523.22 724.87,-2532.19 731.69,-2533.75"/>
<text text-anchor="middle" x="849.95" y="-2565.8" font-family="Times New Roman,serif" font-size="14.00">createMenuBar() &#45;&gt; NetworkStatusWindow()</text>
</g>
<!-- StationNetworkManagerGUI3732&#45;&gt;NetworkVisualizationWindow3732 -->
<g id="edge11" class="edge">
<title>StationNetworkManagerGUI3732&#45;&gt;NetworkVisualizationWindow3732</title>
<path fill="none" stroke="black" d="M93.69,-2604.58C84.05,-2593.16 78.68,-2586.8 78.68,-2586.8 78.68,-2586.8 78.68,-2553.2 78.68,-2553.2 78.68,-2553.2 86.97,-2548.26 99.9,-2540.56"/>
<polygon fill="black" stroke="black" points="101.72,-2543.56 108.52,-2535.43 98.14,-2537.54 101.72,-2543.56"/>
<text text-anchor="middle" x="227.16" y="-2565.8" font-family="Times New Roman,serif" font-size="14.00">createMenuBar() &#45;&gt; NetworkVisualizationWindow()</text>
</g>
</g>
</svg>
